<svg xmlns="http://www.w3.org/2000/svg" xmlns:xlink="http://www.w3.org/1999/xlink" width="153" height="51" viewBox="0 0 153 51">
  <defs>
    <polygon id="floriade-wide-a" points=".3 .141 7.763 .141 7.763 8.32 .3 8.32"/>
    <polygon id="floriade-wide-c" points=".157 .141 7.62 .141 7.62 8.32 .157 8.32"/>
    <polygon id="floriade-wide-e" points="0 50.44 152.481 50.44 152.481 .222 0 .222"/>
  </defs>
  <g fill="none" fill-rule="evenodd">
    <polygon fill="#4AA347" points="127.439 38.524 133.711 38.524 133.711 14.593 127.439 14.593"/>
    <polygon fill="#B5C435" points="117.562 38.525 131.076 38.525 131.076 32.478 117.562 32.478"/>
    <polygon fill="#B5C435" points="117.562 20.642 131.076 20.642 131.076 14.594 117.562 14.594"/>
    <polygon fill="#4AA347" points="115.116 38.524 121.148 38.524 121.148 14.593 115.116 14.593"/>
    <polygon fill="#F1BC1A" points="136.456 38.522 142.488 38.522 142.488 14.591 136.456 14.591"/>
    <polygon fill="#F1BC1A" points="139.32 20.639 152.481 20.639 152.481 14.591 139.32 14.591"/>
    <polygon fill="#EA8523" points="139.32 38.522 152.481 38.522 152.481 32.473 139.32 32.473"/>
    <polygon fill="#EA8523" points="139.32 29.58 152.481 29.58 152.481 23.532 139.32 23.532"/>
    <polygon fill="#E3272A" points="70.746 27.165 63.948 27.451 70.323 38.523 77.287 38.523"/>
    <polygon fill="#E3272A" points="58.592 38.444 64.624 38.444 64.624 14.513 58.592 14.513"/>
    <polygon fill="#9E1F28" points="61.456 20.561 74.123 20.561 74.123 14.513 61.456 14.513"/>
    <polygon fill="#9E1F28" points="61.456 29.845 74.123 29.845 74.123 23.797 61.456 23.797"/>
    <polygon fill="#E3272A" points="71.108 29.845 77.14 29.845 77.14 14.513 71.108 14.513"/>
    <polygon fill="#4AA347" points="80.981 38.491 87.013 38.491 87.013 14.56 80.981 14.56"/>
    <polygon fill="#E3272A" points="107.836 38.291 113.059 35.269 101.061 14.544 97.613 20.538"/>
    <polygon fill="#9E1F28" points="94.45 34.994 107.17 34.994 107.17 28.947 94.45 28.947"/>
    <polygon fill="#E3272A" points="89.128 35.268 94.351 38.291 104.552 20.575 101.06 14.545"/>
    <polygon fill="#83C7D5" points="18.696 38.442 24.727 38.442 24.727 14.512 18.696 14.512"/>
    <polygon fill="#079CD5" points="21.213 38.442 34.655 38.442 34.655 32.394 21.213 32.394"/>
    <polygon fill="#F1BC1A" points="37.358 38.442 43.39 38.442 43.39 14.512 37.358 14.512"/>
    <polygon fill="#F1BC1A" points="49.802 38.442 55.834 38.442 55.834 14.512 49.802 14.512"/>
    <polygon fill="#EA8523" points="40.049 38.442 53.21 38.442 53.21 32.394 40.049 32.394"/>
    <polygon fill="#EA8523" points="40.049 20.561 53.21 20.561 53.21 14.513 40.049 14.513"/>
    <polygon fill="#4AA347" points=".001 38.442 6.032 38.442 6.032 14.511 .001 14.511"/>
    <polygon fill="#B5C435" points="2.866 20.559 16.027 20.559 16.027 14.511 2.866 14.511"/>
    <polygon fill="#B5C435" points="2.866 29.501 16.027 29.501 16.027 23.452 2.866 23.452"/>
    <g transform="translate(0 .298)">
      <path fill="#747575" d="M4.194 45.505c-.082-.236-.16-.465-.233-.686a7.36 7.36 0 0 1-.166-.56 8.286 8.286 0 0 1-.163.56c-.073.22-.153.45-.236.686l-.513 1.45h1.825l-.514-1.45zm1.687 4.753l-.627-1.783H2.337l-.627 1.783H.002l3.053-7.998h1.55l3.03 7.998H5.88z"/>
      <g transform="translate(8.817 42.12)">
        <mask id="floriade-wide-b" fill="#fff">
          <use xlink:href="#floriade-wide-a"/>
        </mask>
        <path fill="#747575" d="M6.156 8.138V5.202c0-.106.002-.244.005-.412.005-.166.007-.34.007-.513a23.899 23.899 0 0 1 .011-.833c-.061.151-.14.354-.245.604-.1.25-.205.49-.31.72L4.015 8.32 2.396 4.768c-.107-.23-.21-.47-.313-.72-.103-.25-.184-.453-.244-.604 0 .075.002.19.005.343.003.15.005.314.005.49 0 .174.003.347.006.513.003.168.005.306.005.412v2.936H.3V.14h1.54L3.5 3.762a17.593 17.593 0 0 1 .315.732c.05.122.094.237.136.342.042.107.074.193.097.263.054-.152.128-.355.227-.612.099-.256.199-.496.306-.725L6.18.141h1.584v7.997H6.156z" mask="url(#floriade-wide-b)"/>
      </g>
      <path fill="#747575" d="M24.476 47.84c0 .38-.062.726-.181 1.038-.122.312-.313.58-.571.804a2.69 2.69 0 0 1-.974.518c-.392.123-.86.183-1.408.183a4.198 4.198 0 0 1-1.822-.388c-.547-.26-.972-.613-1.277-1.061l1.15-1.031c.283.329.596.562.943.704.345.141.71.211 1.098.211.478 0 .83-.068 1.054-.207.223-.136.337-.357.337-.66a.808.808 0 0 0-.068-.339.743.743 0 0 0-.258-.268 2.217 2.217 0 0 0-.541-.239 10.096 10.096 0 0 0-.911-.24 8.226 8.226 0 0 1-1.01-.297 2.908 2.908 0 0 1-.79-.434 1.778 1.778 0 0 1-.513-.664c-.121-.266-.183-.597-.183-.994 0-.365.075-.692.222-.983a2.22 2.22 0 0 1 .61-.735c.259-.202.56-.357.906-.464.344-.105.716-.16 1.111-.16.623 0 1.168.113 1.635.335.467.221.89.532 1.27.933l-1.151 1.121a2.918 2.918 0 0 0-.825-.613 2.265 2.265 0 0 0-.986-.209c-.213 0-.392.02-.536.062a1.14 1.14 0 0 0-.353.164.611.611 0 0 0-.193.23.61.61 0 0 0-.059.26c0 .13.025.24.075.327.05.086.135.164.256.232.122.07.286.134.491.195.204.06.467.129.786.206.32.076.637.165.951.268.315.102.6.245.855.429.254.182.461.412.62.695.16.28.24.637.24 1.07"/>
      <polygon fill="#747575" points="29.524 43.826 29.524 50.259 27.939 50.259 27.939 43.826 25.651 43.826 25.651 42.261 31.814 42.261 31.814 43.826"/>
      <polygon fill="#747575" points="33.363 50.258 33.363 42.261 38.89 42.261 38.89 43.825 34.948 43.825 34.948 45.199 37.237 45.199 37.237 46.761 34.948 46.761 34.948 48.693 39.062 48.693 39.062 50.258"/>
      <path fill="#747575" d="M45.577 44.837c0-.363-.1-.623-.3-.779-.202-.154-.48-.232-.84-.232h-2.083v2.044h2.084c.759 0 1.14-.344 1.14-1.033zm-.193 5.42l-1.424-2.879h-1.606v2.88h-1.585V42.26h3.705c.371 0 .723.052 1.058.156.334.102.626.26.877.473.25.213.449.479.593.794.144.316.215.688.215 1.115 0 .601-.126 1.093-.38 1.479-.255.385-.636.675-1.146.873l1.526 3.107h-1.833zm8.329-3.997c0-.811-.186-1.42-.558-1.827-.372-.403-.98-.608-1.824-.608h-.843v4.867h.787c.417 0 .78-.057 1.088-.175a2 2 0 0 0 .757-.494c.198-.214.346-.468.443-.769.101-.299.15-.63.15-.995m1.651 0c0 .7-.115 1.303-.346 1.81-.232.507-.54.922-.924 1.247-.383.323-.82.56-1.31.713a5 5 0 0 1-1.497.229h-2.382v-7.997H51.4c.57 0 1.096.071 1.578.211.482.141.9.372 1.253.692.354.318.63.731.832 1.238.2.507.301 1.126.301 1.857m5.22-.754c-.083-.236-.16-.465-.233-.686a7.36 7.36 0 0 1-.166-.56 8.286 8.286 0 0 1-.163.56c-.073.22-.153.45-.236.686l-.513 1.45h1.825l-.514-1.45zm1.687 4.753l-.627-1.783h-2.917l-.628 1.783h-1.708l3.054-7.998h1.549l3.03 7.998h-1.753z"/>
      <g transform="translate(65.35 42.12)">
        <mask id="floriade-wide-d" fill="#fff">
          <use xlink:href="#floriade-wide-c"/>
        </mask>
        <path fill="#747575" d="M6.013 8.138V5.202c0-.106.002-.244.006-.412.004-.166.006-.34.006-.513a23.899 23.899 0 0 1 .011-.833c-.06.151-.14.354-.243.604-.102.25-.206.49-.313.72L3.87 8.32 2.255 4.768c-.108-.23-.21-.47-.313-.72-.104-.25-.185-.453-.245-.604 0 .075.002.19.005.343.003.15.007.314.007.49 0 .174.001.347.004.513.003.168.005.306.005.412v2.936H.157V.14h1.54l1.66 3.621a19.294 19.294 0 0 1 .314.731l.137.343c.042.107.074.193.097.263.053-.152.128-.355.227-.612.099-.256.2-.496.306-.725L6.036.141H7.62v7.997H6.013z" mask="url(#floriade-wide-d)"/>
      </g>
      <mask id="floriade-wide-f" fill="#fff">
        <use xlink:href="#floriade-wide-e"/>
      </mask>
      <polygon fill="#747575" points="77.926 46.842 81.914 46.842 81.914 45.379 77.926 45.379" mask="url(#floriade-wide-f)"/>
      <path fill="#747575" d="M90.493 45.505c-.082-.236-.16-.465-.233-.686a7.644 7.644 0 0 1-.166-.56 7.097 7.097 0 0 1-.164.56c-.072.22-.151.45-.234.686l-.513 1.45h1.824l-.514-1.45zm1.687 4.753l-.627-1.783h-2.917l-.627 1.783h-1.708l3.053-7.998h1.55l3.03 7.998H92.18z" mask="url(#floriade-wide-f)"/>
      <polygon fill="#747575" points="95.415 50.258 95.415 42.261 97.001 42.261 96.999 48.693 100.999 48.693 100.999 50.258" mask="url(#floriade-wide-f)"/>
      <path fill="#747575" d="M108.337 50.258v-2.936c0-.106.001-.244.007-.412.003-.166.004-.34.004-.513 0-.175.001-.34.005-.49.005-.153.007-.268.007-.343l-.244.604c-.102.25-.205.49-.312.72l-1.61 3.552-1.617-3.552c-.107-.23-.21-.47-.313-.72a40.39 40.39 0 0 1-.244-.604c0 .075 0 .19.004.343.003.15.005.315.005.49 0 .174.003.347.007.514.003.167.004.305.004.41v2.937h-1.559V42.26h1.539l1.662 3.621c.053.116.107.234.16.36.053.126.104.25.153.372.05.122.094.237.136.342.042.107.075.193.098.263.053-.153.128-.355.226-.612.099-.255.201-.496.307-.725l1.598-3.621h1.583v7.997h-1.606z" mask="url(#floriade-wide-f)"/>
      <polygon fill="#747575" points="111.994 50.258 111.994 42.261 117.52 42.261 117.52 43.825 113.58 43.825 113.58 45.199 115.868 45.199 115.868 46.761 113.58 46.761 113.58 48.693 117.692 48.693 117.692 50.258" mask="url(#floriade-wide-f)"/>
      <path fill="#747575" d="M124.208 44.837c0-.363-.1-.623-.301-.779-.201-.154-.48-.232-.838-.232h-2.084v2.044h2.084c.759 0 1.14-.344 1.14-1.033zm-.193 5.42l-1.424-2.879h-1.606v2.88H119.4V42.26h3.705c.37 0 .723.052 1.058.156.334.102.627.26.877.473.251.213.449.479.593.794.144.316.217.688.217 1.115 0 .601-.128 1.093-.383 1.479-.254.385-.635.675-1.145.873l1.528 3.107h-1.835z" mask="url(#floriade-wide-f)"/>
      <polygon fill="#747575" points="127.536 50.258 127.536 42.261 133.062 42.261 133.062 43.825 129.121 43.825 129.121 45.199 131.409 45.199 131.409 46.761 129.121 46.761 129.121 48.693 133.234 48.693 133.234 50.258" mask="url(#floriade-wide-f)"/>
      <path fill="#747575" d="M143.427 50.258l-2.922-4.365a41.656 41.656 0 0 1-.31-.485 3.991 3.991 0 0 1-.246-.418c0 .079 0 .19.005.339.004.149.006.308.006.479 0 .172.002.343.005.508.004.17.007.309.007.424v3.518h-1.585V42.26h1.54l2.805 4.227.311.485c.11.172.19.311.244.417 0-.074-.002-.188-.006-.336a22.95 22.95 0 0 1-.005-.48c0-.172-.003-.34-.006-.51a19.197 19.197 0 0 1-.005-.42V42.26h1.583v7.997h-1.421z" mask="url(#floriade-wide-f)"/>
      <polygon fill="#747575" points="146.898 50.258 146.898 42.261 148.483 42.261 148.483 48.693 152.482 48.693 152.482 50.258" mask="url(#floriade-wide-f)"/>
      <polygon fill="#747575" points="0 10.24 0 .377 6.829 .377 6.829 2.307 1.967 2.307 1.967 4.012 4.792 4.012 4.792 5.929 1.967 5.929 1.967 8.309 7.042 8.309 7.042 10.24" mask="url(#floriade-wide-f)"/>
      <path fill="#747575" d="M14.756 10.24l-.885-1.493a66.5 66.5 0 0 0-.289-.5c-.107-.184-.21-.366-.307-.55l-.276-.506a9.956 9.956 0 0 1-.196-.374 22.82 22.82 0 0 1-.457.872c-.099.18-.203.363-.31.551-.107.187-.208.356-.301.507l-.887 1.494H8.501l3.12-5.044L8.644.377h2.346l.746 1.268c.084.151.18.318.287.5.108.184.212.368.31.551l.273.507c.085.155.15.28.198.374.045-.094.112-.22.196-.374.084-.156.176-.321.276-.5a37.518 37.518 0 0 1 .596-1.058l.744-1.267h2.346l-2.993 4.82 3.134 5.043h-2.346zm9.907-6.692c0-.432-.13-.749-.386-.95-.26-.204-.608-.303-1.047-.303h-2.263V4.83h2.291c.937 0 1.405-.427 1.405-1.282m2.023-.042c0 .573-.09 1.064-.268 1.472a2.64 2.64 0 0 1-.744 1.007c-.32.263-.695.457-1.13.58a5.232 5.232 0 0 1-1.413.182h-2.164v3.494h-1.968V.378H23.3a4.4 4.4 0 0 1 1.306.19c.413.127.773.322 1.083.586.31.262.552.589.73.977.177.39.267.848.267 1.375m7.87 1.804a5.66 5.66 0 0 0-.127-1.234 2.993 2.993 0 0 0-.4-.992 1.956 1.956 0 0 0-.703-.662c-.287-.16-.626-.24-1.018-.24-.396 0-.734.08-1.019.24a1.92 1.92 0 0 0-.702.662 2.981 2.981 0 0 0-.402.992 5.725 5.725 0 0 0-.126 1.234c0 .442.042.851.126 1.233.084.38.22.71.4.992.183.283.417.504.704.664.285.158.623.239 1.02.239.391 0 .73-.08 1.017-.24.285-.159.52-.38.703-.663.183-.283.316-.612.4-.992.085-.382.127-.791.127-1.233m2.022 0c0 .752-.095 1.44-.286 2.065a4.677 4.677 0 0 1-.838 1.605 3.808 3.808 0 0 1-1.34 1.042c-.53.25-1.132.373-1.806.373-.676 0-1.277-.123-1.807-.373a3.786 3.786 0 0 1-1.342-1.043 4.661 4.661 0 0 1-.836-1.604 6.976 6.976 0 0 1-.288-2.065c0-.753.097-1.44.288-2.066a4.703 4.703 0 0 1 .836-1.605A3.801 3.801 0 0 1 30.501.597c.53-.25 1.131-.373 1.807-.373.674 0 1.276.123 1.806.373a3.83 3.83 0 0 1 1.341 1.042c.365.447.644.983.837 1.605a7.05 7.05 0 0 1 .286 2.066m5.566 4.93c.01-.844.138-1.577.386-2.198.25-.619.578-1.159.991-1.62.412-.46.89-.856 1.433-1.191.545-.333 1.115-.63 1.715-.894.421-.187.711-.378.871-.571a.947.947 0 0 0 .239-.611c.002-.255-.122-.485-.365-.693-.243-.206-.66-.308-1.25-.308-.592 0-1.117.115-1.582.344a5.01 5.01 0 0 0-1.216.839l-1.264-1.48A5.37 5.37 0 0 1 43.9.636 5.76 5.76 0 0 1 46.092.22c1.17 0 2.073.238 2.705.707.632.47.948 1.178.948 2.128 0 .392-.053.739-.16 1.035-.108.295-.268.56-.48.796a3.504 3.504 0 0 1-.786.641 11.4 11.4 0 0 1-1.104.585 9.706 9.706 0 0 0-1.116.577 5.6 5.6 0 0 0-.765.55 2.362 2.362 0 0 0-.48.542c-.11.184-.191.369-.238.557h5.228v1.902h-7.701zM57.25 5.31c0-.442-.041-.855-.126-1.24a3.212 3.212 0 0 0-.387-1 1.99 1.99 0 0 0-.668-.67c-.27-.164-.594-.247-.968-.247-.375 0-.696.08-.963.241a1.95 1.95 0 0 0-.661.663 3.098 3.098 0 0 0-.378.992c-.081.38-.122.792-.122 1.234 0 .44.04.855.122 1.238.08.385.206.725.378 1.015.175.292.395.519.669.683.27.165.595.248.968.248.376 0 .698-.083.97-.248.27-.164.495-.387.668-.668a3.1 3.1 0 0 0 .38-1 6.25 6.25 0 0 0 .119-1.24m1.995-.028c0 .75-.089 1.44-.267 2.063a4.676 4.676 0 0 1-.795 1.614c-.351.45-.784.802-1.3 1.056-.515.253-1.108.38-1.783.38-.676 0-1.268-.123-1.778-.374a3.587 3.587 0 0 1-1.285-1.043 4.665 4.665 0 0 1-.788-1.603 7.589 7.589 0 0 1-.267-2.066c0-.752.09-1.44.267-2.065a4.655 4.655 0 0 1 .794-1.605A3.691 3.691 0 0 1 53.336.598c.512-.25 1.103-.373 1.78-.373.673 0 1.266.121 1.777.365.51.246.94.59 1.291 1.035.352.447.616.98.795 1.6.178.62.267 1.305.267 2.058m.998 4.958c.01-.845.138-1.578.386-2.198.25-.62.578-1.159.991-1.62a6.45 6.45 0 0 1 1.433-1.191c.544-.333 1.115-.63 1.714-.894.422-.187.712-.379.872-.572a.947.947 0 0 0 .24-.611c0-.255-.123-.484-.366-.692-.243-.205-.661-.309-1.251-.309a3.53 3.53 0 0 0-1.582.345c-.463.23-.869.51-1.215.839L60.2 1.858A5.37 5.37 0 0 1 62 .638a5.76 5.76 0 0 1 2.192-.416c1.17.002 2.073.237 2.705.707.632.47.948 1.178.948 2.127 0 .393-.053.74-.16 1.035-.11.296-.268.56-.48.796a3.516 3.516 0 0 1-.786.642c-.315.192-.68.387-1.104.585a9.702 9.702 0 0 0-1.117.577c-.304.187-.559.37-.765.55a2.37 2.37 0 0 0-.479.542c-.11.184-.191.369-.238.557h5.228v1.901h-7.701zm9.022 0c.01-.845.137-1.578.385-2.198.25-.62.579-1.16.992-1.62.411-.46.89-.858 1.433-1.191.544-.333 1.115-.63 1.714-.894.422-.187.712-.379.872-.572a.945.945 0 0 0 .239-.611c0-.255-.122-.484-.365-.692-.243-.205-.661-.309-1.251-.309a3.53 3.53 0 0 0-1.582.345c-.463.23-.869.51-1.215.839l-1.265-1.48a5.37 5.37 0 0 1 1.8-1.22 5.73 5.73 0 0 1 2.192-.416c1.17 0 2.073.237 2.705.707.632.47.948 1.178.948 2.127 0 .393-.054.74-.16 1.035-.11.296-.268.56-.48.796a3.513 3.513 0 0 1-.786.642c-.315.192-.681.387-1.104.585a9.702 9.702 0 0 0-1.117.577c-.304.187-.559.37-.765.55a2.37 2.37 0 0 0-.479.542c-.11.184-.191.369-.239.557h5.228v1.901h-7.7z" mask="url(#floriade-wide-f)"/>
    </g>
  </g>
</svg>
